<svg xmlns="http://www.w3.org/2000/svg" viewBox="0 0 560 300" role="img" aria-labelledby="title desc">
  <title id="title">A calm pastel garden</title>
  <desc id="desc">Rolling mint hills with flowers, a winding path, and warm clouds.</desc>
  <defs>
    <linearGradient id="sky" x1="0" y1="0" x2="0" y2="1">
      <stop stop-color="#dceefa"/>
      <stop offset="1" stop-color="#fff8e9"/>
    </linearGradient>
  </defs>
  <rect width="560" height="300" rx="34" fill="url(#sky)"/>
  <circle cx="462" cy="65" r="32" fill="#ffd9a7" opacity=".9"/>
  <g fill="#fffdf7" opacity=".86">
    <ellipse cx="96" cy="63" rx="48" ry="20"/>
    <ellipse cx="65" cy="69" rx="28" ry="14"/>
    <ellipse cx="128" cy="70" rx="33" ry="15"/>
  </g>
  <path d="M0 195C90 129 178 149 267 198c76 42 182 21 293-40v142H0Z" fill="#b9ddca"/>
  <path d="M0 225c103-39 185-16 269 24 94 44 179 12 291-39v90H0Z" fill="#8fc8af"/>
  <path d="M234 300c20-65 49-103 92-127 18-10 38-18 63-24-34 25-56 57-68 96-7 23-9 41-9 55Z" fill="#f7e7c8"/>
  <g stroke="#52705f" stroke-width="4" stroke-linecap="round">
    <path d="M80 228v-32M144 244v-36M452 231v-40M498 251v-34"/>
  </g>
  <g>
    <g transform="translate(80 191)">
      <circle cx="0" cy="0" r="8" fill="#f29ba2"/><circle cx="12" cy="6" r="8" fill="#f29ba2"/><circle cx="7" cy="18" r="8" fill="#f29ba2"/><circle cx="-7" cy="18" r="8" fill="#f29ba2"/><circle cx="-12" cy="6" r="8" fill="#f29ba2"/><circle cx="0" cy="9" r="6" fill="#ffe1a8"/>
    </g>
    <g transform="translate(144 203)">
      <circle cx="0" cy="0" r="8" fill="#b39ed8"/><circle cx="12" cy="6" r="8" fill="#b39ed8"/><circle cx="7" cy="18" r="8" fill="#b39ed8"/><circle cx="-7" cy="18" r="8" fill="#b39ed8"/><circle cx="-12" cy="6" r="8" fill="#b39ed8"/><circle cx="0" cy="9" r="6" fill="#ffe1a8"/>
    </g>
    <g transform="translate(452 186)">
      <circle cx="0" cy="0" r="8" fill="#ffd176"/><circle cx="12" cy="6" r="8" fill="#ffd176"/><circle cx="7" cy="18" r="8" fill="#ffd176"/><circle cx="-7" cy="18" r="8" fill="#ffd176"/><circle cx="-12" cy="6" r="8" fill="#ffd176"/><circle cx="0" cy="9" r="6" fill="#9b704e"/>
    </g>
    <g transform="translate(498 212)">
      <circle cx="0" cy="0" r="8" fill="#f5a9cf"/><circle cx="12" cy="6" r="8" fill="#f5a9cf"/><circle cx="7" cy="18" r="8" fill="#f5a9cf"/><circle cx="-7" cy="18" r="8" fill="#f5a9cf"/><circle cx="-12" cy="6" r="8" fill="#f5a9cf"/><circle cx="0" cy="9" r="6" fill="#ffe1a8"/>
    </g>
  </g>
</svg>
